PathFileType	4	(X/Y/Z)	./resultDataOpenSim/trcMotMarkerGrf/sub09/qtm-13-02.trc
DataRate	CameraRate	NumFrames	NumMarkers	Units	OrigDataRate	OrigDataStartFrame	OrigNumFrames
250.000000	250.000000	10	24	m	250.000000	197	523
Frame#	Time	L.Toe.Tip			R.Toe.Tip			L.Ankle.Lat			R.Ankle.Lat			L.Ankle.Med			R.Ankle.Med			L.Heel			R.Heel			L.Knee.Lat			R.Knee.Lat			L.Knee.Med			R.Knee.Med			L.Thigh.Upper			R.Thigh.Upper			L.ASIS			R.ASIS			V.Sacral			L.Acromium			R.Acromium			C7			L.Elbow			R.Elbow			L.Wrist.Lat			R.Wrist.Lat
		X1	Y1	Z1	X2	Y2	Z2	X3	Y3	Z3	X4	Y4	Z4	X5	Y5	Z5	X6	Y6	Z6	X7	Y7	Z7	X8	Y8	Z8	X9	Y9	Z9	X10	Y10	Z10	X11	Y11	Z11	X12	Y12	Z12	X13	Y13	Z13	X14	Y14	Z14	X15	Y15	Z15	X16	Y16	Z16	X17	Y17	Z17	X18	Y18	Z18	X19	Y19	Z19	X20	Y20	Z20	X21	Y21	Z21	X22	Y22	Z22	X23	Y23	Z23	X24	Y24	Z24

197	0.784	0.15956355	-0.0092717872	0.0031184236	-0.59668849	0.065548359	0.0718079	0.013908091	0.023384446	-0.053844691	-0.65332561	0.20923588	0.10224199	0.026118865	0.039552287	0.044705951	-0.59232605	0.20590084	0.02274949	-0.059285457	-0.013359314	-0.012413023	-0.69096957	0.24865156	0.039156646	0.046607329	0.43704538	-0.10895669	-0.25693306	0.42746336	0.1983168	0.040478006	0.44291689	0.016406371	-0.24351671	0.39737442	0.079929012	-0.14004308	0.81244442	-0.16231369	-0.22982383	0.82210367	0.20358333	-0.076107412	0.90058251	-0.088993595	-0.11091193	0.90264929	0.15063334	-0.25921662	0.95097595	0.0026772768	-0.1197366	1.3488726	-0.16526367	-0.16927303	1.3747308	0.16257801	-0.20770271	1.4079355	-0.0098059216	-0.28448154	1.0288189	-0.22931449	-0.29852165	1.0392234	0.25945167	-0.18948324	0.78440069	-0.26629674	-0.14848408	0.81669595	0.30896269
198	0.788	0.15953144	-0.0094185639	0.0032182347	-0.59094797	0.068364028	0.072857142	0.014188593	0.023036998	-0.053954722	-0.64266115	0.21443864	0.10333168	0.026008074	0.039440725	0.044665057	-0.58153678	0.20997891	0.023993109	-0.059347788	-0.013331337	-0.012718309	-0.67902684	0.25546244	0.040637924	0.05063306	0.43551693	-0.10919163	-0.24406604	0.42649822	0.19902662	0.045714753	0.44151899	0.015739717	-0.23082964	0.39645031	0.080630659	-0.13515301	0.81280404	-0.16252723	-0.2231164	0.82176338	0.20341238	-0.070410458	0.90183569	-0.090315459	-0.10519522	0.90281373	0.14987733	-0.25126095	0.95105896	0.0045516703	-0.11241271	1.3491791	-0.16531902	-0.16205111	1.3750434	0.16234915	-0.20098034	1.4082576	-0.010052988	-0.27637253	1.0288654	-0.22979213	-0.29246471	1.0400021	0.25873111	-0.18090474	0.78446225	-0.26624004	-0.14409334	0.81685681	0.30914324
199	0.792	0.15957392	-0.0095228759	0.0032770488	-0.58443506	0.071417546	0.073861467	0.014558076	0.022733907	-0.05400645	-0.63159281	0.21946818	0.10443406	0.026110142	0.039402089	0.044626361	-0.57051899	0.21406706	0.025265284	-0.059338296	-0.01323265	-0.012887103	-0.66681773	0.26213315	0.041983195	0.054364794	0.43414698	-0.10968689	-0.23082317	0.42565391	0.1997851	0.050512232	0.43988988	0.015111266	-0.21811809	0.39577787	0.081196313	-0.13004937	0.81311829	-0.16289545	-0.21637868	0.82144731	0.20322818	-0.064751005	0.90288815	-0.091414239	-0.099600112	0.90306135	0.14919629	-0.24419875	0.95142558	0.0057394599	-0.10511666	1.349506	-0.16534535	-0.1548845	1.3754165	0.16213755	-0.19430915	1.408684	-0.01031144	-0.26833551	1.0289366	-0.23024835	-0.28656332	1.0408271	0.25811017	-0.17223559	0.78458774	-0.26619104	-0.13972372	0.817019	0.30929668
200	0.796	0.15968235	-0.0095991667	0.0032897195	-0.57689078	0.074842704	0.074818677	0.014996972	0.022529318	-0.053999666	-0.62014151	0.22439335	0.10552717	0.026419098	0.039407206	0.044610895	-0.55928824	0.21825468	0.026504967	-0.05926874	-0.013075699	-0.0128797	-0.65456014	0.26861479	0.043268645	0.057786186	0.4330064	-0.1103554	-0.2176236	0.42489141	0.20091429	0.054842451	0.4381748	0.014597417	-0.2053716	0.39536732	0.081640367	-0.12470539	0.81341137	-0.16344452	-0.20961742	0.82116783	0.20302225	-0.059134657	0.90368359	-0.09233799	-0.094128559	0.90340406	0.14858469	-0.23832053	0.95199762	0.0060569354	-0.097875563	1.3498596	-0.16535637	-0.14781062	1.3758409	0.1619408	-0.18767823	1.4092055	-0.010577746	-0.26038617	1.0290192	-0.23070345	-0.28099909	1.0417283	0.25763197	-0.1635036	0.78477803	-0.26614367	-0.13538303	0.81717996	0.30942375
201	0.8	0.15981536	-0.0096613536	0.0032736655	-0.56806962	0.078764179	0.07582618	0.015437961	0.022437223	-0.05394929	-0.60836253	0.22928559	0.10662169	0.026812861	0.039408187	0.044656728	-0.54787965	0.22265877	0.027623689	-0.05917584	-0.012915435	-0.012674108	-0.64243098	0.27481411	0.044641638	0.060981178	0.43202343	-0.11090014	-0.20493325	0.42422129	0.20272483	0.0586235	0.43657424	0.014239419	-0.19257349	0.39524245	0.081946112	-0.1192167	0.81368835	-0.16405529	-0.20286261	0.82094743	0.20278977	-0.053581907	0.90423073	-0.09316511	-0.088782668	0.90386513	0.14803362	-0.23296272	0.95255142	0.0060321393	-0.090703155	1.3502544	-0.16535933	-0.14086817	1.3763197	0.16176581	-0.18107421	1.4098064	-0.01082747	-0.25252546	1.0291023	-0.23117869	-0.27584821	1.0427238	0.25732464	-0.15472136	0.78503583	-0.26607888	-0.13107466	0.81735599	0.30952484
202	0.804	0.15992808	-0.0097146437	0.0032593794	-0.55792287	0.083194476	0.077008099	0.015805248	0.022427841	-0.05387722	-0.59633813	0.23421182	0.10773257	0.027167018	0.039377287	0.044768965	-0.53633085	0.22732522	0.028563157	-0.059097852	-0.012808004	-0.012302445	-0.63038304	0.28060952	0.046112986	0.064025422	0.43113835	-0.11109114	-0.19288225	0.42371086	0.20503258	0.061777137	0.43528524	0.014038137	-0.17971637	0.39542429	0.082101688	-0.11373554	0.81392632	-0.16452546	-0.19614712	0.82080941	0.20253332	-0.048132789	0.90458734	-0.093954176	-0.083549728	0.90446353	0.14753776	-0.22737907	0.9529587	0.0061056865	-0.083587786	1.3507003	-0.16534321	-0.13410367	1.376863	0.16162146	-0.17450358	1.4104716	-0.011015755	-0.2447496	1.029187	-0.23168902	-0.27093386	1.0437885	0.25716369	-0.14589142	0.78536493	-0.26598149	-0.12679394	0.81756831	0.30960254
203	0.808	0.15999429	-0.0097599458	0.0032707582	-0.54658165	0.088036322	0.078402696	0.0160589	0.022451114	-0.053805167	-0.58413093	0.23919702	0.10886299	0.02742522	0.039318602	0.044902046	-0.52461806	0.23216254	0.029370289	-0.059060615	-0.012755074	-0.011915774	-0.61824529	0.28592561	0.047583515	0.066950404	0.43037973	-0.11088581	-0.18122408	0.42342971	0.20704543	0.06433118	0.43443197	0.013996714	-0.16685793	0.39590771	0.082175725	-0.10829124	0.81410303	-0.16475156	-0.18948682	0.82077248	0.20225706	-0.042850942	0.90482369	-0.094745079	-0.078397505	0.90519794	0.14708913	-0.22174339	0.95344492	0.0059131857	-0.076512637	1.3511955	-0.16528934	-0.12754783	1.3774745	0.16150964	-0.16799194	1.4112057	-0.011116577	-0.23705521	1.0292859	-0.23224222	-0.26592378	1.0448672	0.25708322	-0.13701594	0.78576753	-0.26585158	-0.12253166	0.8178292	0.30966197
204	0.812	0.1600074	-0.0098001379	0.0033154804	-0.53425476	0.093130488	0.079926797	0.016206331	0.022463626	-0.05375136	-0.57176054	0.24417929	0.11001164	0.02757768	0.039246845	0.044999528	-0.51264267	0.23698574	0.030206175	-0.059073369	-0.012709397	-0.011714291	-0.60594218	0.29082344	0.049018718	0.06978524	0.42983508	-0.11046469	-0.16956603	0.42341687	0.2080348	0.066382986	0.4340186	0.014121552	-0.15414604	0.39666241	0.082344123	-0.10272181	0.81422882	-0.16487592	-0.18288949	0.82085719	0.20196096	-0.037720226	0.90501811	-0.095514701	-0.0732945	0.9060488	0.14666733	-0.21698167	0.95437648	0.0045149809	-0.069474441	1.35173	-0.16518659	-0.12119726	1.3781497	0.16143082	-0.16151638	1.4120257	-0.011213361	-0.22943794	1.0294177	-0.23284101	-0.26065661	1.0459312	0.25703543	-0.12811113	0.78624379	-0.26569391	-0.11827612	0.81813966	0.30971022
205	0.816	0.15997268	-0.0098408049	0.0033896768	-0.52121751	0.098264144	0.081424309	0.016282929	0.022443437	-0.053726065	-0.55921746	0.24902935	0.111177	0.027627298	0.039170171	0.045034516	-0.50031939	0.2416284	0.031212363	-0.059128989	-0.012639948	-0.011768535	-0.59351131	0.29544613	0.05047147	0.072620731	0.429563	-0.11014619	-0.15756313	0.42369206	0.20795861	0.068017151	0.43394176	0.014390295	-0.14170226	0.39765307	0.082771367	-0.09686687	0.81433187	-0.16515509	-0.17637585	0.82109032	0.20164394	-0.032562061	0.90527122	-0.096148145	-0.068232093	0.90699563	0.14624623	-0.21339846	0.95579234	0.0016976107	-0.062481797	1.3522969	-0.16503295	-0.11504137	1.3788831	0.16139065	-0.15497492	1.4129183	-0.011490216	-0.2218908	1.029594	-0.23348218	-0.25522123	1.0469935	0.25701002	-0.11921026	0.78679748	-0.26550279	-0.11401846	0.81850231	0.30975161
206	0.82	0.15990325	-0.0098854809	0.0034830124	-0.50779186	0.10320546	0.082749168	0.01632823	0.022393866	-0.053728774	-0.54649761	0.253624	0.11236194	0.027603436	0.039099113	0.045013453	-0.48768361	0.24603282	0.032365219	-0.059210573	-0.012555291	-0.011981628	-0.58099554	0.29987298	0.051992665	0.075540765	0.4295069	-0.11010642	-0.14497525	0.42427089	0.20736583	0.069300294	0.434047	0.014726652	-0.12941651	0.39886233	0.083395648	-0.090801555	0.81443056	-0.16565865	-0.16997733	0.82149965	0.20131314	-0.027231304	0.90566672	-0.096565937	-0.063219328	0.9080282	0.14581256	-0.21012446	0.95731432	-0.0014655155	-0.055547696	1.3529035	-0.16483165	-0.10908632	1.3796724	0.16139077	-0.14832568	1.4138474	-0.012006494	-0.21440616	1.0298147	-0.23415413	-0.24975008	1.048073	0.25700618	-0.11034052	0.78743677	-0.26527142	-0.10976001	0.81893327	0.30978398
